# xmcd
#
# Track frame offsets:
#	150
#	15083
#	31190
#
# Disc length: 572 seconds
#
# Revision: 0
# Processed by: cddbd v1.5.2PL0 Copyright (c) Steve Scherf et al.
# Submitted via: audiograbber 1.83.01
#
DISCID=0f023a03
DTITLE=Kathrin and Peter - Sei doch ganz einfach gut Gelaunt
DYEAR=2004
DGENRE=Volksmusik
TTITLE0=Sei doch ganz einfach gut Gelaunt
TTITLE1=Beim Kronenwirt-Volksliedermedley
TTITLE2=Viel Glück Geburtstagskind
EXTD=<http://www.hit-radio24.de> \n
EXTT0=
EXTT1=
EXTT2=
PLAYORDER=
